<svg xmlns="http://www.w3.org/2000/svg" width="375.001" height="264.001" viewBox="0 0 375.001 264.001"><defs><style>.a{fill:#e6d7ff;}.b{fill:#cbaaff;}</style></defs><g transform="translate(0.001 -403)"><path class="a" d="M-682,264V51.91A364.247,364.247,0,0,1-494,0,364.279,364.279,0,0,1-307,51.312V264Z" transform="translate(682 403)"/><path class="b" d="M-13-634.7H-388v-80.09a364.212,364.212,0,0,1,85.563-37.382,366.3,366.3,0,0,1,95.323-14.459l5.432-8.45A1.992,1.992,0,0,1-200-776a1.992,1.992,0,0,1,1.683.919l5.433,8.45a366.3,366.3,0,0,1,94.751,14.294A364.215,364.215,0,0,1-13-715.387V-634.7Z" transform="translate(388 1301.699)"/></g></svg>